<?xml version="1.0" standalone="no"?><!DOCTYPE svg PUBLIC "-//W3C//DTD SVG 1.1//EN" "http://www.w3.org/Graphics/SVG/1.1/DTD/svg11.dtd"><svg t="1548121962408" class="icon" style="" viewBox="0 0 1024 1024" version="1.1" xmlns="http://www.w3.org/2000/svg" p-id="2081" xmlns:xlink="http://www.w3.org/1999/xlink" width="200" height="200"><defs><style type="text/css"></style></defs><path d="M833.627185 958.708971H190.371792c-39.417755 0-71.472821-32.055067-71.472822-71.472821V136.762827c0-39.409568 32.055067-71.472821 71.472822-71.472822h446.704878a35.758412 35.758412 0 0 1 26.191522 11.421121l232.286414 250.154363a35.698037 35.698037 0 0 1 9.544377 24.315802v536.054859c0.001023 39.418778-32.05302 71.472821-71.471798 71.472821zM190.371792 136.762827v750.473323h643.255393V365.210819L621.494787 136.762827H190.371792z" fill="#444444" p-id="2082"></path><path d="M869.364107 422.654113H583.472821c-19.735483 0-35.735899-16.001439-35.735899-35.7359V101.026928c0-19.735483 16.001439-35.735899 35.735899-35.735899 19.735483 0 35.736922 16.001439 35.736923 35.735899V351.181291H869.364107c19.735483 0 35.735899 16.001439 35.735899 35.736922s-16.000416 35.735899-35.735899 35.7359z" fill="#444444" p-id="2083"></path><path d="M617.408725 592.405261H483.397568V458.394105h-89.340771V592.405261h-134.012179v89.340771h134.012179v134.01218h89.340771v-134.01218h134.011157z" fill="#00D8A0" p-id="2084"></path></svg>