<?xml version="1.0" standalone="no"?><!DOCTYPE svg PUBLIC "-//W3C//DTD SVG 1.1//EN" "http://www.w3.org/Graphics/SVG/1.1/DTD/svg11.dtd"><svg t="1548121978141" class="icon" style="" viewBox="0 0 1024 1024" version="1.1" xmlns="http://www.w3.org/2000/svg" p-id="2200" xmlns:xlink="http://www.w3.org/1999/xlink" width="200" height="200"><defs><style type="text/css"></style></defs><path d="M522.447956 958.708971H147.2159c-39.417755 0-71.472821-32.055067-71.472822-71.472821V136.762827c0-39.409568 32.055067-71.472821 71.472822-71.472822h643.255392c39.417755 0 71.472821 32.063253 71.472822 71.472822v285.891286c0 19.735483-16.001439 35.735899-35.735899 35.735899s-35.735899-16.001439-35.735899-35.735899v-285.891286H147.2159v750.473323h375.232056c19.735483 0 35.735899 16.001439 35.735899 35.735899s-16.000416 35.736922-35.735899 35.736922z" fill="#444444" p-id="2201"></path><path d="M611.788727 279.70847h-285.891285c-19.735483 0-35.735899-16.001439-35.7359-35.736923s16.001439-35.735899 35.7359-35.735899h285.891285c19.735483 0 35.735899 16.001439 35.735899 35.735899s-16.000416 35.736922-35.735899 35.736923z" fill="#444444" p-id="2202"></path><path d="M701.130522 947.977559c-16.140609 0-31.269168-6.316869-42.611494-17.763572L498.664274 768.519328c-33.869389-34.262338-49.643654-81.575924-43.274596-129.823788 6.334265-47.916313 34.113959-89.506547 76.218915-114.084314 52.924373-30.850635 119.703289-25.057699 169.520905 12.799514 49.836035-37.85619 116.613928-43.675732 169.520905-12.790305 42.104957 24.568559 69.88465 66.150606 76.218916 114.075105 6.369058 48.238654-9.405207 95.561449-43.274596 129.823788L743.759411 930.196591c-11.359722 11.464099-26.488281 17.780969-42.628889 17.780968z m-95.81523-357.267916c-10.748808 0-21.253046 2.600221-30.484291 7.974625-26.052353 15.22475-32.752961 38.642089-34.410718 51.249221-2.879584 21.767769 4.13518 43.012629 19.246343 58.281381l141.462872 143.094023 141.462872-143.094023c15.111163-15.276938 22.125927-36.521798 19.246343-58.281381-1.657756-12.607132-8.358365-36.024471-34.428113-51.240011-25.179472-14.69263-60.043514-8.628518-82.884733 14.482852l-12.9131 13.043061a42.87653 42.87653 0 0 1-30.484292 12.72072 42.928718 42.928718 0 0 1-30.501688-12.728906l-12.894681-13.043061c-14.481829-14.649652-33.797757-22.458501-52.416814-22.458501z" fill="#00D8A0" p-id="2203"></path></svg>